<svg xmlns="http://www.w3.org/2000/svg" viewBox="0 0 64 64">
    <defs>
        <linearGradient id="bg" x1="0" y1="0" x2="1" y2="1">
            <stop offset="0" stop-color="#0284c7"/>
            <stop offset="1" stop-color="#06b6d4"/>
        </linearGradient>
    </defs>
    <rect width="64" height="64" rx="14" fill="url(#bg)"/>
    <g fill="none" stroke="#ffffff" stroke-width="3.6" stroke-linecap="round" stroke-linejoin="round">
        <!-- heart -->
        <path d="M40 12 c1.6-3.2 6.4-3.2 7.4 0.4 c0.9 3-2.7 5.8-7.4 8.4 c-4.7-2.6-8.3-5.4-7.4-8.4 c1-3.6 5.8-3.6 7.4-0.4 z" stroke-width="2.8"/>
        <!-- baby: solid head, torso, bent leg, arm -->
        <circle cx="45.5" cy="33" r="4.8" fill="#ffffff" stroke="none"/>
        <path d="M41 34.5 C37 37.5 32.5 38 29 36"/>
        <path d="M29 36 L23 29.5 L16.5 32.5"/>
        <path d="M35.5 36 L33 30"/>
        <!-- open hand -->
        <path d="M8 51 C13.5 45 21 42.5 29 43.5 L39.5 44.8 C42.5 45.2 42.5 49 39.5 49.4 L31 49.6"/>
        <path d="M36.5 49.5 L52 45.5 C55.5 44.6 57 48.4 54 50 L41 55 C35 57 27.5 56.3 21.5 53.5 L13 52.5"/>
    </g>
</svg>
